<?xml version="1.0" encoding="utf-8"?>
<!-- Generator: Adobe Illustrator 28.1.0, SVG Export Plug-In . SVG Version: 6.00 Build 0)  -->
<svg version="1.1" id="Capa_1" xmlns="http://www.w3.org/2000/svg" xmlns:xlink="http://www.w3.org/1999/xlink" x="0px" y="0px"
	 viewBox="0 0 200 200" style="enable-background:new 0 0 200 200;" xml:space="preserve">
<g id="B4zp00.tif">
	<g>
		<path d="M190.1,63c0,24.2,0,48.5,0,72.7c-0.1,0.8-0.2,1.6-0.3,2.4c-0.5,4-0.7,8-1.5,11.9c-3.6,17.3-13.3,29.5-29.9,36
			c-7.9,3.1-16.3,3.9-24.7,4c-19.1,0.2-38.2,0.4-57.3,0.3c-9.4-0.1-18.8-0.1-28-2.3c-14.9-3.6-26.1-12.1-32.7-26.1
			c-4.1-8.6-5.3-17.9-5.4-27.3C10,115,9.8,95.5,9.9,76c0.1-8.2,0.6-16.5,1.8-24.6c1.9-12.6,8-23.1,18.3-30.9
			c8.9-6.6,19.1-9.3,30-10.1c4.3-0.3,8.7-0.5,13-0.7c18,0,36,0,54,0c4.2,0.2,8.4,0.5,12.6,0.7c7.4,0.4,14.6,1.7,21.4,4.7
			c16.6,7.5,25.4,20.8,28.1,38.4C189.5,56.7,189.8,59.9,190.1,63z M100.1,174.4c0-0.1,0-0.2,0-0.3c4.8,0,9.5,0.1,14.3,0
			c10.3-0.4,20.6-0.2,30.8-1.5c13.9-1.8,23.3-9.8,26.7-23.6c1.4-5.6,1.8-11.5,1.9-17.3c0.3-16.7,0.4-33.4,0.3-50.1
			c-0.1-8.7-0.3-17.5-1.4-26.2C171,40.8,161.9,31,147.4,28.1c-6.2-1.2-12.6-1.6-18.9-1.7c-16.8-0.2-33.6-0.3-50.4-0.1
			c-8,0.1-16,0.4-23.9,1.5c-13.8,2-23.2,11-26,24.5c-1.2,5.9-1.6,12-1.7,18c-0.3,14.6-0.4,29.2-0.3,43.7c0.1,10.1,0.4,20.2,1.4,30.3
			c1,10.3,5.9,18.8,15.2,24.1c5.7,3.3,11.9,4.6,18.4,4.9C74.1,173.9,87.1,174.1,100.1,174.4z"/>
		<path d="M53.7,100.1c0-25.6,20.8-46.4,46.4-46.4c25.6,0,46.2,20.6,46.4,46.3c0.1,25.6-20.7,46.5-46.3,46.5
			C74.6,146.5,53.7,125.7,53.7,100.1z M70.1,99.9C70,116.5,83.3,130,99.9,130.1c16.7,0.1,30.1-13.2,30.3-29.8
			c0.1-16.7-13.2-30.2-30-30.3C83.6,69.9,70.2,83.3,70.1,99.9z"/>
		<path d="M159.1,51.8c0,6-4.7,10.8-10.6,10.9c-6,0.1-11-4.8-11-10.7c0-6,4.7-10.8,10.7-10.9C154.3,41,159.1,45.7,159.1,51.8z"/>
	</g>
</g>
</svg>
