<?xml version="1.0" encoding="utf-8"?>
<!-- Generator: Adobe Illustrator 28.1.0, SVG Export Plug-In . SVG Version: 6.00 Build 0)  -->
<svg version="1.1" id="Capa_1" xmlns="http://www.w3.org/2000/svg" xmlns:xlink="http://www.w3.org/1999/xlink" x="0px" y="0px"
	 viewBox="0 0 200 200" style="enable-background:new 0 0 200 200;" xml:space="preserve">
<g id="pci6zn.tif">
	<g>
		<path d="M73.2,191.4c-1.6-0.8-2.1-2-2.1-3.7c0-38.9,0-77.7,0-116.6c0-2.8,1-3.8,3.9-3.8c11.1,0,22.3,0,33.4,0
			c2.7,0,3.8,1.1,3.8,3.8c0,2.2,0,4.3,0,6.7c0.4-0.3,0.6-0.5,0.8-0.7c7.9-8,17.6-12,28.7-12.6c8.3-0.5,16.5,0.4,24.3,3.5
			c10.2,4.1,16.9,11.6,20.7,21.8c2.7,7.2,3.8,14.7,4.3,22.3c0.2,3.2,0.3,6.5,0.5,9.7c0,22.5,0,45.1,0,67.6c-0.7,0.7-1.4,1.4-2.1,2.1
			c-12.8,0-25.7,0-38.5,0c-1.6-0.7-2.1-2-2.1-3.7c0-21.3-0.1-42.5-0.2-63.8c0-3.8-0.5-7.5-1.6-11.2c-1.3-4.4-3.8-7.7-8.3-9.2
			c-2.9-1-6-1-9.1-0.7c-7.5,0.7-12,4.3-14.3,11.5c-1.3,4.1-1.8,8.4-1.8,12.7c0,20.2,0,40.4,0,60.7c0,1.7-0.5,3-2.1,3.7
			C98.9,191.4,86,191.4,73.2,191.4z"/>
		<path d="M13.2,191.4c-1.5-0.9-1.9-2.2-1.9-3.9c0-38.7,0-77.5,0-116.2c0-2.9,1-3.9,3.9-3.9c11.6,0,23.3,0,34.9,0
			c2.8,0,3.9,1,3.9,3.8c0,38.9,0,77.7,0,116.6c0,1.7-0.5,3-2.1,3.7C39,191.4,26.1,191.4,13.2,191.4z"/>
		<path d="M32.6,8.6c13.4,0,24.3,10.9,24.3,24.5c0,13-11.2,24.1-24.3,24C19,57,8.2,46,8.4,32.4C8.5,19.4,19.4,8.6,32.6,8.6z"/>
	</g>
</g>
</svg>
