<?xml version="1.0" encoding="utf-8"?>
<!-- Generator: Adobe Illustrator 28.1.0, SVG Export Plug-In . SVG Version: 6.00 Build 0)  -->
<svg version="1.1" id="Capa_1" xmlns="http://www.w3.org/2000/svg" xmlns:xlink="http://www.w3.org/1999/xlink" x="0px" y="0px"
	 viewBox="0 0 200 200" style="enable-background:new 0 0 200 200;" xml:space="preserve">
<g>
	<g>
		<path d="M100.4,8.4c-50.8,0-92,40.9-92,91.4c0,50.8,40.9,91.9,91.6,91.9c50.5,0,91.7-40.9,91.7-91.2
			C191.7,49.6,150.9,8.4,100.4,8.4z M99.7,183.7c-46.1,0-83.4-37.7-83.4-84.1c0-45.9,37.6-83.3,83.7-83.3
			c46.2,0,83.7,37.5,83.7,83.8C183.7,146.3,146.1,183.7,99.7,183.7z"/>
	</g>
	<g>
		<path d="M82.5,105.5C77,99.9,71.5,94.4,66.1,88.9c-5.5,5.5-10.9,11-16.1,16.1c11,11,22.1,22.1,32.9,32.9
			c22.6-22.6,45.4-45.4,67.8-67.8c-5.3-5.3-10.7-10.8-16.4-16.4C117.2,70.8,99.9,88.1,82.5,105.5z"/>
	</g>
</g>
</svg>
